<?xml version="1.0" encoding="UTF-8"?>
<svg xmlns="http://www.w3.org/2000/svg" width="514" height="160" viewBox="0 0 514 160" role="img" aria-label="Discoverr.">
  <defs>
    <linearGradient id="bg" x1="18%" y1="0%" x2="82%" y2="100%">
      <stop offset="0%" stop-color="#163247"/>
      <stop offset="55%" stop-color="#0C1C28"/>
      <stop offset="100%" stop-color="#061018"/>
    </linearGradient>
    <linearGradient id="beam" x1="0%" y1="50%" x2="100%" y2="50%">
      <stop offset="0%" stop-color="#9AF0E8"/>
      <stop offset="45%" stop-color="#4FD1C5"/>
      <stop offset="100%" stop-color="#2A9B94"/>
    </linearGradient>
    <linearGradient id="facet" x1="30%" y1="10%" x2="70%" y2="90%">
      <stop offset="0%" stop-color="#6BE0D6" stop-opacity="0.95"/>
      <stop offset="100%" stop-color="#248F88" stop-opacity="0.95"/>
    </linearGradient>
  </defs>

  <!-- Mark -->
  <g transform="translate(16,16)">
    <rect width="128" height="128" rx="30" fill="url(#bg)"/>
    <circle cx="64" cy="64" r="44" fill="#4FD1C5" opacity="0.07"/>
    <path
      fill="none"
      stroke="url(#beam)"
      stroke-width="4.5"
      stroke-linecap="round"
      opacity="0.55"
      d="M38 64a26 26 0 0 1 26-26"/>
    <path
      fill="none"
      stroke="url(#beam)"
      stroke-width="4.5"
      stroke-linecap="round"
      opacity="0.8"
      d="M30 64a34 34 0 0 1 34-34"/>
    <path
      fill="none"
      stroke="url(#beam)"
      stroke-width="5"
      stroke-linecap="round"
      d="M22 64a42 42 0 0 1 42-42"/>
    <circle cx="64" cy="64" r="10" fill="url(#facet)"/>
    <circle cx="64" cy="64" r="3.5" fill="#E8F6F5"/>
    <path
      fill="#9AF0E8"
      d="M92 40l2.2 5.2 5.4 1.2-4.2 3.6 1.4 5.4L92 52.4l-4.8 3 1.4-5.4-4.2-3.6 5.4-1.2z"/>
  </g>

  <!-- Wordmark: Cantarell Extra Bold (GNOME) as outlines; period at natural advance -->
  <path fill-rule="nonzero" fill="#E8F6F5" d="M 172.828125 102 L 189.625 102 C 205.8125 102 216.484375 92.28125 216.484375 77.453125 C 216.484375 63.234375 206.828125 54.8125 190.515625 54.8125 L 172.828125 54.8125 Z M 184.390625 91.875 L 184.390625 64.9375 L 189.828125 64.9375 C 198.875 64.9375 204.25 70.109375 204.25 78.8125 C 204.25 87.25 199.546875 91.875 190.984375 91.875 Z M 223.21875 102 L 234.984375 102 L 234.984375 68.6875 L 223.21875 68.6875 Z M 229.125 64.125 C 233.140625 64.125 235.859375 61.40625 235.859375 57.390625 C 235.859375 53.3125 233.140625 50.59375 229.125 50.59375 C 225.125 50.59375 222.40625 53.3125 222.40625 57.390625 C 222.40625 61.40625 225.125 64.125 229.125 64.125 Z M 254.90625 102.6875 C 264.96875 102.6875 270.6875 98.53125 270.6875 91.328125 C 270.6875 83.09375 263.28125 81.796875 257.96875 80.921875 C 255.109375 80.375 252.875 80.03125 252.875 78.671875 C 252.875 77.515625 254.5 76.84375 257.765625 76.84375 C 260.421875 76.84375 263.6875 77.3125 267.015625 78.125 L 269.265625 69.625 C 266 68.609375 261.578125 68 257.5625 68 C 247.234375 68 241.65625 71.9375 241.65625 79.21875 C 241.65625 87.453125 248.796875 88.53125 253.890625 89.359375 C 256.8125 89.828125 259.0625 90.171875 259.0625 91.65625 C 259.0625 92.953125 257.21875 93.84375 254.296875 93.84375 C 251.375 93.84375 247.15625 93.03125 243.6875 91.796875 L 241.171875 100.15625 C 244.984375 101.734375 250.078125 102.6875 254.90625 102.6875 Z M 293.328125 102.6875 C 297.40625 102.6875 300.875 101.859375 304.34375 100.09375 L 301.765625 92.140625 C 299.796875 92.953125 297.75 93.296875 295.84375 93.296875 C 290.34375 93.296875 287.21875 90.375 287.21875 85.140625 C 287.21875 80.4375 289.734375 77.796875 294.765625 77.796875 C 297 77.796875 299.71875 78.265625 301.765625 78.953125 L 304.140625 69.84375 C 301.421875 68.6875 297.6875 68 294.140625 68 C 282.59375 68 275.25 74.9375 275.25 85.953125 C 275.25 96.484375 281.96875 102.6875 293.328125 102.6875 Z M 325.71875 102.6875 C 336.875 102.6875 344.359375 95.46875 344.359375 84.734375 C 344.359375 74.59375 337.546875 68 326.9375 68 C 315.71875 68 308.25 75.203125 308.25 86.015625 C 308.25 96.078125 315.046875 102.6875 325.71875 102.6875 Z M 326.46875 92.890625 C 322.53125 92.890625 320.21875 90.03125 320.21875 85.265625 C 320.21875 80.578125 322.390625 77.796875 326.125 77.796875 C 330.078125 77.796875 332.390625 80.71875 332.390625 85.6875 C 332.390625 90.234375 330.203125 92.890625 326.46875 92.890625 Z M 359.4375 102 L 371.203125 102 L 384.125 68.6875 L 372.296875 68.6875 L 365.5625 90.84375 L 359.578125 68.6875 L 346.65625 68.6875 Z M 405.6875 102.6875 C 409.765625 102.6875 414.0625 101.9375 418.265625 100.5 L 415.6875 92.546875 C 412.90625 93.5 410.25 93.96875 407.53125 93.96875 C 402.5625 93.96875 399.578125 92.34375 398.421875 88.609375 L 418.40625 88.609375 C 418.6875 86.90625 418.890625 85.203125 418.890625 83.4375 C 418.890625 73.71875 413.3125 68 403.78125 68 C 393.25 68 386.25 74.9375 386.25 85.40625 C 386.25 96.15625 393.59375 102.6875 405.6875 102.6875 Z M 398.015625 82.140625 C 398.421875 78.46875 400.109375 76.640625 402.96875 76.640625 C 406.03125 76.640625 407.796875 78.609375 407.796875 82.140625 Z M 425.21875 102 L 436.984375 102 L 436.984375 82.421875 C 438.75 80.515625 441.0625 79.421875 443.578125 79.421875 C 445.078125 79.421875 446.96875 79.765625 448.34375 80.234375 L 450.984375 69.5 C 449.625 68.8125 447.59375 68.40625 445.546875 68.40625 C 441.609375 68.40625 437.859375 70.375 435.421875 73.84375 L 434.390625 68.6875 L 425.21875 68.6875 Z M 455.21875 102 L 466.984375 102 L 466.984375 82.421875 C 468.75 80.515625 471.0625 79.421875 473.578125 79.421875 C 475.078125 79.421875 476.96875 79.765625 478.34375 80.234375 L 480.984375 69.5 C 479.625 68.8125 477.59375 68.40625 475.546875 68.40625 C 471.609375 68.40625 467.859375 70.375 465.421875 73.84375 L 464.390625 68.6875 L 455.21875 68.6875"/>
  <path fill-rule="nonzero" fill="#4FD1C5" d="M 490.71875 102.6875 C 495.078125 102.6875 497.9375 99.546875 497.9375 95.46875 C 497.9375 91.125 495.078125 87.984375 490.71875 87.984375 C 486.375 87.984375 483.515625 91.125 483.515625 95.46875 C 483.515625 99.546875 486.375 102.6875 490.71875 102.6875"/>
</svg>
